<?xml version="1.0" encoding="UTF-8"?>
<!DOCTYPE svg PUBLIC "-//W3C//DTD SVG 1.1//EN" "http://www.w3.org/Graphics/SVG/1.1/DTD/svg11.dtd">
<!-- Creator: CorelDRAW -->
<svg xmlns="http://www.w3.org/2000/svg" xml:space="preserve" width="2048px" height="2048px" style="shape-rendering:geometricPrecision; text-rendering:geometricPrecision; image-rendering:optimizeQuality; fill-rule:evenodd; clip-rule:evenodd"
viewBox="0 0 2048 2048"
 xmlns:xlink="http://www.w3.org/1999/xlink">
 <defs>
  <style type="text/css">
   <![CDATA[
    .fil0 {fill:none}
    .fil1 {fill:#212121;fill-rule:nonzero}
   ]]>
  </style>
 </defs>
 <g id="Layer_x0020_1">
  <metadata id="CorelCorpID_0Corel-Layer"/>
  <g id="_445076088">
   <rect id="_445079496" class="fil0" x="255.996" y="255.996" width="1536" height="1536"/>
   <g>
    <path id="_445073208" class="fil1" d="M1591.47 317.438l-1134.97 0c-4.80945,0 -9.12166,1.90394 -12.202,4.97953 -3.0189,3.01299 -4.88622,7.26497 -4.88622,12.0319l0 1379.1c0,4.77284 1.86614,9.02363 4.8815,12.0343 3.07914,3.07323 7.39253,4.97717 12.2067,4.97717l1134.97 0c4.82008,0 9.13938,-1.90276 12.2197,-4.97717 3.01772,-3.01181 4.88386,-7.26142 4.88386,-12.0343l0 -1379.1c0,-4.76339 -1.86969,-9.01418 -4.88977,-12.0295 -3.08386,-3.07677 -7.39843,-4.98189 -12.2138,-4.98189zm-1134.97 -61.441l1134.97 0c21.5941,0 41.1886,8.78623 55.4138,22.9831 14.2902,14.263 23.1319,33.8847 23.1319,55.4693l0 1379.1c0,21.5977 -8.83938,41.2134 -23.126,55.4741 -14.2264,14.198 -33.8233,22.9795 -55.4197,22.9795l-1134.97 0c-21.5953,0 -41.1886,-8.78387 -55.4067,-22.9795 -14.2854,-14.2642 -23.1236,-33.8835 -23.1236,-55.4741l0 -1379.1c0,-21.5823 8.8382,-41.2051 23.1284,-55.4717 14.2169,-14.1957 33.8079,-22.9807 55.402,-22.9807z"/>
    <path id="_445077528" class="fil1" d="M532.48 378.879l983.041 0 30.7205 0 0 30.7205 0 307.198 0 30.7217 -30.7205 0 -983.041 0 -30.7205 0 0 -30.7217 0 -307.198 0 -30.7205 30.7205 0zm952.32 61.441l-921.6 0 0 245.757 921.6 0 0 -245.757z"/>
    <path id="_445079304" class="fil1" d="M1546.24 1520.91c0,17.7614 -7.27678,33.9225 -19.0524,45.6886 -11.6976,11.6917 -27.8126,18.9236 -45.5811,18.9236l-156.095 0c-17.7614,0 -33.8788,-7.23544 -45.5788,-18.9272 -11.7721,-11.765 -19.0536,-27.9236 -19.0536,-45.6851l0 -551.093c0,-17.7579 7.28032,-33.9107 19.0536,-45.665 11.7047,-11.6858 27.8221,-18.9177 45.5788,-18.9177l156.095 0c17.7638,0 33.8799,7.22835 45.5823,18.9142 11.7732,11.7555 19.0512,27.9095 19.0512,45.6685l0 551.093zm-62.2524 2.24882c0.500788,-0.500788 0.811418,-1.29095 0.811418,-2.24882l0 -551.093c0,-0.946064 -0.31063,-1.72914 -0.810237,-2.22874 -0.564567,-0.563386 -1.40433,-0.912993 -2.38229,-0.912993l-156.095 0c-0.97441,0 -1.81299,0.351969 -2.37874,0.916536 -0.500788,0.499607 -0.811418,1.28268 -0.811418,2.2252l0 551.093c0,0.954331 0.31063,1.74567 0.811418,2.24528 0.570473,0.570473 1.41024,0.924804 2.37874,0.924804l156.095 0c0.972048,0 1.81181,-0.35315 2.3811,-0.921261z"/>
    <path id="_445076328" class="fil1" d="M1026.87 1217.67c-43.1115,0 -82.1906,-17.4898 -110.519,-45.7595 -28.3925,-28.3347 -45.9555,-67.3949 -45.9555,-110.457 0,-43.0666 17.5618,-82.1292 45.9544,-110.467 28.3288,-28.2721 67.4079,-45.763 110.521,-45.763 43.1115,0 82.1894,17.491 110.518,45.763 28.3925,28.3382 45.9544,67.4032 45.9544,110.467 0,43.0618 -17.563,82.1221 -45.9555,110.457 -28.3288,28.2697 -67.4079,45.7595 -110.517,45.7595zm-67.3193 -89.2005c17.1851,17.1496 40.9843,27.7595 67.3193,27.7595 26.3339,0 50.1319,-10.6099 67.317,-27.7595 17.1225,-17.0858 27.7146,-40.7776 27.7146,-67.0158 0,-26.2429 -10.5921,-49.9382 -27.7134,-67.0264 -17.1851,-17.152 -40.9843,-27.763 -67.3182,-27.763 -26.3351,0 -50.1355,10.611 -67.3205,27.763 -17.1213,17.0882 -27.7134,40.7823 -27.7134,67.0264 0,26.2382 10.5921,49.93 27.7146,67.0158z"/>
    <path id="_445069776" class="fil1" d="M658.204 1217.67c-43.1032,0 -82.1753,-17.4898 -110.497,-45.7595 -28.3878,-28.3358 -45.9473,-67.3973 -45.9473,-110.457 0,-43.0642 17.5595,-82.128 45.9461,-110.467 28.3205,-28.2721 67.3926,-45.763 110.498,-45.763 43.1162,0 82.1953,17.4898 110.522,45.7607 28.3925,28.337 45.952,67.4032 45.952,110.47 0,43.063 -17.5595,82.1245 -45.9532,110.462 -28.3276,28.2673 -67.4044,45.7548 -110.521,45.7548zm-67.2969 -89.2005c17.1803,17.1496 40.9713,27.7595 67.2969,27.7595 26.3398,0 50.1378,-10.6087 67.3205,-27.7547 17.1225,-17.087 27.7122,-40.78 27.7122,-67.0205 0,-26.2453 -10.5898,-49.9418 -27.711,-67.03 -17.1827,-17.1496 -40.9819,-27.7595 -67.3217,-27.7595 -26.3268,0 -50.1178,10.611 -67.2981,27.763 -17.1165,17.087 -27.7051,40.7811 -27.7051,67.0264 0,26.2394 10.5898,49.9311 27.7063,67.0158z"/>
    <path id="_445079544" class="fil1" d="M1026.87 1585.52c-43.115,0 -82.1977,-17.4851 -110.528,-45.7595 -28.3878,-28.3323 -45.9473,-67.3938 -45.9473,-110.471 0,-43.0607 17.563,-82.1174 45.9544,-110.446 28.3288,-28.2685 67.4091,-45.7548 110.521,-45.7548 43.1091,0 82.1894,17.4874 110.519,45.7548 28.3902,28.3299 45.9532,67.3855 45.9532,110.446 0,43.0725 -17.5618,82.1339 -45.9508,110.469 -28.3299,28.2744 -67.4103,45.7618 -110.522,45.7618zm-67.3276 -89.2005c17.1851,17.1508 40.9866,27.7583 67.3276,27.7583 26.3351,0 50.1367,-10.6087 67.3217,-27.7595 17.1189,-17.0858 27.7099,-40.78 27.7099,-67.0288 0,-26.2358 -10.5921,-49.9217 -27.7122,-67.0064 -17.1839,-17.1461 -40.9843,-27.7536 -67.3193,-27.7536 -26.3374,0 -50.1378,10.6075 -67.3205,27.7536 -17.1213,17.0835 -27.7134,40.7717 -27.7134,67.0064 0,26.2536 10.5898,49.9465 27.7063,67.03z"/>
    <path id="_445069536" class="fil1" d="M658.204 1585.52c-43.1079,0 -82.1835,-17.4851 -110.505,-45.7595 -28.3831,-28.3335 -45.939,-67.3938 -45.939,-110.471 0,-43.0583 17.5583,-82.115 45.9461,-110.446 28.3229,-28.2673 67.3938,-45.7548 110.498,-45.7548 43.115,0 82.193,17.4839 110.522,45.7512 28.3925,28.3299 45.952,67.3878 45.952,110.45 0,43.0748 -17.5595,82.1375 -45.9496,110.472 -28.3264,28.2733 -67.4067,45.7583 -110.524,45.7583zm-67.3052 -89.2005c17.1791,17.1508 40.9748,27.7583 67.3052,27.7583 26.3421,0 50.1426,-10.6075 67.3241,-27.7571 17.1201,-17.0858 27.7087,-40.78 27.7087,-67.0312 0,-26.237 -10.5898,-49.9264 -27.711,-67.0099 -17.1815,-17.1437 -40.9807,-27.75 -67.3217,-27.75 -26.328,0 -50.1189,10.6075 -67.2981,27.7536 -17.1154,17.0823 -27.7051,40.7705 -27.7051,67.0064 0,26.2559 10.5862,49.9477 27.6981,67.03z"/>
   </g>
  </g>
  <rect class="fil0" width="2048" height="2048"/>
 </g>
</svg>
